<?xml version="1.0" encoding="utf-8"?>
<!-- Generator: Adobe Illustrator 18.1.1, SVG Export Plug-In . SVG Version: 6.00 Build 0)  -->
<!DOCTYPE svg PUBLIC "-//W3C//DTD SVG 1.1//EN" "http://www.w3.org/Graphics/SVG/1.1/DTD/svg11.dtd">
<svg version="1.1" id="Layer_1" xmlns="http://www.w3.org/2000/svg" xmlns:xlink="http://www.w3.org/1999/xlink" x="0px" y="0px"
	 viewBox="0 0 283.5 170.1" enable-background="new 0 0 283.5 170.1" xml:space="preserve">
<g>
	<path fill="#EDDADC" d="M119.1,141.5c-0.2,1-0.5,1.9-0.8,2.7l0,0.2c0,0.1-0.1,0.2-0.2,0.4l0,0.1c-1.1,2.6-3.7,4.3-6.6,4.3
		c-0.9,0-1.8-0.2-2.7-0.5l-93.2-36.5l-2.4-1l-1.2-0.8C22,93.8,19.4,74,5.1,62.8C4.8,62.5,4.2,62,4.2,62s0.3,0.1,1,0.4l1.1,0.4
		c1.7,0.7,4.5,1.8,8.1,3.2L17,67c1.5,0.6,3.1,1.2,4.8,1.9l3,1.2c5.1,2,10.7,4.2,16.5,6.5c1.3,0.5,2.6,1,3.8,1.5
		c4.5,1.8,9,3.5,13.2,5.2c1.2,0.5,2.3,0.9,3.5,1.4c13.6,5.4,24.3,9.6,24.3,9.6l0.6,0.2l17,6.7c0.7,0.3,1.4,0.6,2,1.1
		c0.9,0.6,1.7,1.3,2.5,2c0.6,0.5,1.1,1,1.7,1.6c0.2,0.2,0.5,0.5,0.7,0.8c0.5,0.5,1,1.1,1.4,1.6c0.5,0.6,0.9,1.2,1.4,1.8
		c0.6,0.8,1.1,1.6,1.6,2.5c0.3,0.5,0.6,1,0.8,1.5c0.2,0.4,0.4,0.8,0.6,1.2l0.2,0.5c0.2,0.5,0.5,1,0.7,1.6
		C120.6,124.9,121.2,133.4,119.1,141.5z M26.6,78.3c0,0.5,0.3,1,0.8,1.2l56.3,22.3l6.7,2.6c0.7,0.3,1.4-0.1,1.7-0.7
		c0.3-0.7-0.1-1.4-0.7-1.7l-3.6-1.4L28.4,77.1c-0.7-0.3-1.4,0.1-1.7,0.7C26.6,78,26.6,78.2,26.6,78.3z M87,131.6l-44.2-17.5
		L24,106.6c-0.7-0.3-1.4,0.1-1.7,0.7c-0.1,0.2-0.1,0.3-0.1,0.5c0,0.5,0.3,1,0.8,1.2l15.7,6.2L86.1,134c0.7,0.3,1.4-0.1,1.7-0.7
		C88,132.6,87.7,131.8,87,131.6z M96,120.5l-32.2-12.7l-17.8-7c-0.7-0.3-1.4,0.1-1.7,0.7c-0.1,0.2-0.1,0.3-0.1,0.5
		c0,0.5,0.3,1,0.8,1.2l14.7,5.8L95,123c0.7,0.3,1.4-0.1,1.7-0.7C97,121.5,96.6,120.8,96,120.5z"/>
	<path fill="#BE1622" d="M266.8,110.7c-0.6,0.9-1.5,1.6-2.6,1.9l-1.1,0.3L124,154.4c-1.1,0.3-2.3,0.6-3.4,0.7
		c-1.2,0.2-2.5,0.3-3.8,0.3h-0.5c-1.7,0-3.3-0.2-4.9-0.6c-1.4-0.3-2.8-0.7-4.2-1.2l-92.9-36.4c-0.4-0.1-0.7-0.3-1-0.5
		c-2-1.2-2.7-3.9-1.7-6c0-0.1,0-0.1,0.1-0.1c0-0.1,0.1-0.2,0.1-0.2l1.2,0.8l2.4,1l93.2,36.5c0.9,0.3,1.8,0.5,2.7,0.5
		c2.8,0,5.4-1.7,6.6-4.3l0-0.1c0.1-0.1,0.1-0.2,0.2-0.4l0-0.2c0.3-0.8,0.6-1.8,0.8-2.7c2.1-8.1,1.6-16.6-1.6-24.1
		c-0.2-0.5-0.4-1-0.7-1.6l-0.2-0.5c-0.2-0.4-0.4-0.8-0.6-1.2c-0.3-0.5-0.6-1-0.8-1.5c-0.5-0.9-1.1-1.7-1.6-2.5
		c-0.4-0.6-0.9-1.2-1.4-1.8c-0.4-0.5-0.9-1.1-1.4-1.6c-0.2-0.3-0.5-0.5-0.7-0.8c-0.6-0.6-1.1-1.1-1.7-1.6c-0.8-0.7-1.6-1.4-2.5-2
		c-0.6-0.5-1.3-0.8-2-1.1l-17-6.7l-0.6-0.2c0,0-10.6-4.2-24.3-9.6l-3.5-1.4c-4.3-1.7-8.7-3.5-13.2-5.2l-3.8-1.5
		c-5.7-2.3-11.4-4.5-16.5-6.5c-1-0.4-2-0.8-3-1.2c-1.7-0.7-3.3-1.3-4.8-1.9c-0.9-0.4-1.8-0.7-2.7-1.1c-3.5-1.4-6.3-2.5-8.1-3.2
		c-0.4-0.2-0.8-0.3-1.1-0.4c-0.6-0.2-1-0.4-1-0.4c-0.1-0.2-0.2-0.4-0.2-0.7C3.9,60.9,4,60.4,4.1,60c0.3-0.8,0.9-1.5,1.8-1.7
		c0,0,0,0,0,0l149.1-44.5c0.3-0.1,0.6-0.1,0.9-0.1c0.4,0,0.8,0.1,1.2,0.2l96.6,38.2c1.9,0.8,3.7,1.8,5.3,3.1
		C275.4,68.5,278.7,92.4,266.8,110.7z M156.7,85.9l0.9-0.3l24.6-7.4l63.8-19.1c0.6-0.2,0.9-0.7,0.9-1.3c0-0.1,0-0.2,0-0.4
		c-0.2-0.7-0.9-1.1-1.6-0.9l-67,20.1l-24.6,7.4l-0.9,0.3l-37.7,11.3c-0.6,0.2-0.9,0.7-0.9,1.3c0,0.1,0,0.2,0,0.4
		c0.2,0.7,0.9,1.1,1.6,0.9L156.7,85.9z"/>
</g>
</svg>
